<svg width="25" height="29" viewBox="0 0 25 29" fill="none" xmlns="http://www.w3.org/2000/svg">
<path id="Vector" d="M7.14286 0C8.13058 0 8.92857 0.797991 8.92857 1.78571V3.57143H16.0714V1.78571C16.0714 0.797991 16.8694 0 17.8571 0C18.8449 0 19.6429 0.797991 19.6429 1.78571V3.57143H22.3214C23.8002 3.57143 25 4.77121 25 6.25V8.92857H0V6.25C0 4.77121 1.19978 3.57143 2.67857 3.57143H5.35714V1.78571C5.35714 0.797991 6.15513 0 7.14286 0ZM0 10.7143H25V25.8929C25 27.3717 23.8002 28.5714 22.3214 28.5714H2.67857C1.19978 28.5714 0 27.3717 0 25.8929V10.7143ZM3.57143 15.1786V16.9643C3.57143 17.4554 3.97321 17.8571 4.46429 17.8571H6.25C6.74107 17.8571 7.14286 17.4554 7.14286 16.9643V15.1786C7.14286 14.6875 6.74107 14.2857 6.25 14.2857H4.46429C3.97321 14.2857 3.57143 14.6875 3.57143 15.1786ZM10.7143 15.1786V16.9643C10.7143 17.4554 11.1161 17.8571 11.6071 17.8571H13.3929C13.8839 17.8571 14.2857 17.4554 14.2857 16.9643V15.1786C14.2857 14.6875 13.8839 14.2857 13.3929 14.2857H11.6071C11.1161 14.2857 10.7143 14.6875 10.7143 15.1786ZM18.75 14.2857C18.2589 14.2857 17.8571 14.6875 17.8571 15.1786V16.9643C17.8571 17.4554 18.2589 17.8571 18.75 17.8571H20.5357C21.0268 17.8571 21.4286 17.4554 21.4286 16.9643V15.1786C21.4286 14.6875 21.0268 14.2857 20.5357 14.2857H18.75ZM3.57143 22.3214V24.1071C3.57143 24.5982 3.97321 25 4.46429 25H6.25C6.74107 25 7.14286 24.5982 7.14286 24.1071V22.3214C7.14286 21.8304 6.74107 21.4286 6.25 21.4286H4.46429C3.97321 21.4286 3.57143 21.8304 3.57143 22.3214ZM11.6071 21.4286C11.1161 21.4286 10.7143 21.8304 10.7143 22.3214V24.1071C10.7143 24.5982 11.1161 25 11.6071 25H13.3929C13.8839 25 14.2857 24.5982 14.2857 24.1071V22.3214C14.2857 21.8304 13.8839 21.4286 13.3929 21.4286H11.6071ZM17.8571 22.3214V24.1071C17.8571 24.5982 18.2589 25 18.75 25H20.5357C21.0268 25 21.4286 24.5982 21.4286 24.1071V22.3214C21.4286 21.8304 21.0268 21.4286 20.5357 21.4286H18.75C18.2589 21.4286 17.8571 21.8304 17.8571 22.3214Z" fill="#00ABD1"/>
</svg>
