<svg width="24" height="22" viewBox="0 0 24 22" fill="none" xmlns="http://www.w3.org/2000/svg">
<g id="8726099_message_icon 1" clip-path="url(#clip0_152_89)">
<path id="Vector" d="M20.34 10.3734L6.34 3.95485C5.78749 3.7027 5.16362 3.61294 4.55344 3.69779C3.94326 3.78264 3.37646 4.03799 2.93033 4.42901C2.48421 4.82003 2.18046 5.3277 2.0605 5.88279C1.94054 6.43789 2.0102 7.01341 2.26 7.53087L4.66 12.4548C4.71446 12.5738 4.74251 12.7016 4.74251 12.8307C4.74251 12.9598 4.71446 13.0876 4.66 13.2067L2.26 18.1306C2.0567 18.5494 1.97076 19.0081 2.00998 19.465C2.0492 19.922 2.21235 20.3628 2.48459 20.7472C2.75682 21.1317 3.12953 21.4477 3.56883 21.6665C4.00812 21.8852 4.50009 21.9999 5 22C5.46823 21.9957 5.92949 21.8955 6.35 21.7066L20.35 15.2881C20.8466 15.059 21.264 14.708 21.5557 14.274C21.8474 13.8401 22.0018 13.3404 22.0018 12.8307C22.0018 12.321 21.8474 11.8213 21.5557 11.3874C21.264 10.9535 20.8466 10.6024 20.35 10.3734H20.34ZM19.45 13.6468L5.45 20.0653C5.26617 20.1462 5.05973 20.1737 4.85839 20.144C4.65705 20.1143 4.47041 20.0289 4.32352 19.8992C4.17662 19.7695 4.07648 19.6017 4.03653 19.4183C3.99658 19.235 4.01873 19.0448 4.1 18.8733L6.49 13.9494C6.52094 13.8836 6.54766 13.8163 6.57 13.7477H13.46C13.7252 13.7477 13.9796 13.6511 14.1671 13.4791C14.3546 13.3071 14.46 13.0739 14.46 12.8307C14.46 12.5875 14.3546 12.3543 14.1671 12.1824C13.9796 12.0104 13.7252 11.9138 13.46 11.9138H6.57C6.54766 11.8452 6.52094 11.7778 6.49 11.7121L4.1 6.78816C4.01873 6.61666 3.99658 6.42648 4.03653 6.24311C4.07648 6.05974 4.17662 5.89196 4.32352 5.76225C4.47041 5.63255 4.65705 5.54713 4.85839 5.51744C5.05973 5.48775 5.26617 5.51522 5.45 5.59615L19.45 12.0147C19.6138 12.0916 19.7513 12.2085 19.8473 12.3525C19.9433 12.4965 19.994 12.662 19.994 12.8307C19.994 12.9995 19.9433 13.165 19.8473 13.309C19.7513 13.4529 19.6138 13.5698 19.45 13.6468Z" fill="#00677D"/>
</g>
<defs>
<clipPath id="clip0_152_89">
<rect width="24" height="22" fill="white"/>
</clipPath>
</defs>
</svg>
