<svg width="57" height="50" viewBox="0 0 57 50" fill="none" xmlns="http://www.w3.org/2000/svg">
<g id="Hospital">
<path id="Vector" d="M57 47.019H0V50H57V47.019Z" fill="#7DD1EC"/>
<path id="Vector_2" d="M17.7785 1.09369H5.42847V4.1678H17.7785V1.09369Z" fill="#7DD1EC"/>
<path id="Vector_3" d="M51.5714 1.09369H39.2214V4.1678H51.5714V1.09369Z" fill="#7DD1EC"/>
<path id="Vector_4" d="M17.6428 34.4655H15.8514V32.1367H41.1485V34.4655H39.3571V44.6893H52.3857V28.9927H4.61426V44.6893H17.6428V34.4655Z" fill="#7DD1EC"/>
<path id="Vector_5" d="M17.7785 6.49664H8.92993V26.6647H48.0699V6.49664H39.2214V9.8968H17.7785V6.49664ZM20.7642 25.3372H14.3585V19.8411H20.7642V25.3372ZM36.2356 12.249H42.6414V17.7451H36.2356V12.249ZM36.2356 19.8411H42.6414V25.3372H36.2356V19.8411ZM25.2971 12.249H31.7028V17.7451H25.2971V12.249ZM25.2971 19.8411H31.7028V25.3372H25.2971V19.8411ZM20.7642 12.249V17.7451H14.3585V12.249H20.7642Z" fill="#7DD1EC"/>
<path id="Vector_6" d="M36.5072 0H20.4929V7.56884H36.5072V0Z" fill="#7DD1EC"/>
<path id="Vector_7" d="M30.0744 39.4503H26.9258V44.6902H30.0744V39.4503Z" fill="#7DD1EC"/>
<path id="Vector_8" d="M36.6429 44.6893V34.4655H20.3572V44.6893H24.2115V37.1204H32.7886V44.6893H36.6429Z" fill="#7DD1EC"/>
<path id="Vector_9" d="M18.0501 14.5778H17.073V15.4162H18.0501V14.5778Z" fill="#7DD1EC"/>
<path id="Vector_10" d="M18.0501 22.17H17.073V23.0084H18.0501V22.17Z" fill="#7DD1EC"/>
<path id="Vector_11" d="M28.9884 14.5778H28.0112V15.4162H28.9884V14.5778Z" fill="#7DD1EC"/>
<path id="Vector_12" d="M28.9884 22.17H28.0112V23.0084H28.9884V22.17Z" fill="#7DD1EC"/>
<path id="Vector_13" d="M39.9271 14.5778H38.95V15.4162H39.9271V14.5778Z" fill="#7DD1EC"/>
<path id="Vector_14" d="M39.9271 22.17H38.95V23.0084H39.9271V22.17Z" fill="#7DD1EC"/>
</g>
</svg>
