<svg width="68" height="57" viewBox="0 0 68 57" fill="none" xmlns="http://www.w3.org/2000/svg">
<g id="6643381_diet_examination_fitness_physical_statistic_icon 1">
<g id="examination-physical-statistic">
<g id="Group">
<path id="Vector" d="M63.4313 42.0794C62.6078 41.781 58.4242 40.3137 56.7614 40.8347C55.5156 41.2468 54.3409 41.7964 53.2684 42.469C51.348 40.6588 48.9414 40.1556 46.75 40.2046V29.0789L47.6558 28.3196C47.7056 28.2787 47.7451 28.2299 47.772 28.176C47.7989 28.122 47.8127 28.0642 47.8125 28.0057V23.2084C47.8127 23.1499 47.7989 23.092 47.772 23.0381C47.7451 22.9842 47.7056 22.9353 47.6558 22.8944L46.75 22.1351V8.46094C46.7488 7.87072 46.4686 7.30497 45.9707 6.88763C45.4728 6.47028 44.7979 6.23538 44.0938 6.23438H38.7812V5.78906C38.7808 5.67107 38.7247 5.558 38.6252 5.47457C38.5256 5.39113 38.3908 5.3441 38.25 5.34375H29.6969C29.5736 4.84116 29.2474 4.38956 28.7732 4.06508C28.299 3.74061 27.7059 3.56311 27.0938 3.5625H23.9062C23.2941 3.56311 22.701 3.74061 22.2268 4.06508C21.7526 4.38956 21.4264 4.84116 21.3031 5.34375H12.75C12.6092 5.3441 12.4744 5.39113 12.3748 5.47457C12.2753 5.558 12.2192 5.67107 12.2188 5.78906V6.23438H6.90625C6.20214 6.23538 5.5272 6.47028 5.02932 6.88763C4.53143 7.30497 4.25119 7.87072 4.25 8.46094V45.869C4.25119 46.4592 4.53143 47.0249 5.02932 47.4423C5.5272 47.8596 6.20214 48.0945 6.90625 48.0955H40.0111C45.5175 51.0749 49.9694 51.6872 52.7027 51.6872C53.6404 51.6994 54.5763 51.6142 55.4891 51.4336C55.8556 51.7498 56.2222 52.0726 56.5728 52.3888C57.6433 53.2861 58.6447 53.4375 59.1972 53.4375C59.3154 53.4373 59.4335 53.4299 59.5505 53.4152H63.2188C63.3595 53.4149 63.4944 53.3679 63.5939 53.2844C63.6935 53.201 63.7496 53.0879 63.75 52.9699V42.489C63.7504 42.4021 63.7204 42.317 63.6637 42.2442C63.6071 42.1714 63.5263 42.1141 63.4313 42.0794ZM41.1798 37.321C39.78 35.2681 39.4055 31.9681 39.4028 31.9369C39.4002 31.9042 39.3922 31.872 39.3789 31.8412H42.5V40.9082C42.1813 41.0017 41.897 41.0974 41.65 41.1843C41.9103 39.9461 41.9555 38.461 41.1798 37.321ZM33.2695 44.533C33.3333 44.9138 33.3891 45.221 33.4236 45.4237H7.96875C7.82798 45.4233 7.6931 45.3763 7.59356 45.2928C7.49403 45.2094 7.43792 45.0963 7.4375 44.9783V9.35156C7.43792 9.23357 7.49403 9.1205 7.59356 9.03707C7.6931 8.95363 7.82798 8.9066 7.96875 8.90625H12.7527C12.9056 9.21686 13.0923 9.51499 13.3105 9.79688C13.9337 10.6159 14.7932 11.2901 15.8095 11.7571C16.8258 12.2241 17.966 12.4688 19.125 12.4688H31.875C33.034 12.4688 34.1742 12.2241 35.1905 11.7571C36.2068 11.2901 37.0663 10.6159 37.6895 9.79688C37.9077 9.51499 38.0944 9.21686 38.2473 8.90625H43.0312C43.172 8.9066 43.3069 8.95363 43.4064 9.03707C43.506 9.1205 43.5621 9.23357 43.5625 9.35156V19.4697C43.4709 19.4056 43.3551 19.3709 43.2358 19.3718H37.5142C37.4445 19.3716 37.3754 19.3831 37.3111 19.4057C37.2468 19.4282 37.1885 19.4614 37.1397 19.5031L33.0942 22.8944C33.0444 22.9353 33.0049 22.9842 32.978 23.0381C32.9511 23.092 32.9373 23.1499 32.9375 23.2084V28.0046C32.9373 28.063 32.9511 28.1209 32.978 28.1749C33.0049 28.2288 33.0444 28.2776 33.0942 28.3185L34.9722 29.8927C34.6216 30.9036 33.142 35.21 32.7383 37.156C32.3983 38.809 32.9481 42.6071 33.2695 44.533ZM23.9062 7.125V6.23438C23.9067 6.11638 23.9628 6.00332 24.0623 5.91988C24.1618 5.83644 24.2967 5.78941 24.4375 5.78906H26.5625C26.7033 5.78941 26.8382 5.83644 26.9377 5.91988C27.0372 6.00332 27.0933 6.11638 27.0938 6.23438V7.125H23.9062ZM62.6875 52.5246H59.5C59.458 52.5249 59.4162 52.5286 59.3752 52.5357C59.3353 52.5446 58.4428 52.6983 57.3378 51.772C56.8995 51.3757 56.432 50.9682 55.9752 50.5764C54.3947 49.2271 52.9045 48.0535 52.8859 48.0401C52.7831 47.9592 52.6461 47.9159 52.5051 47.9196C52.3642 47.9234 52.2307 47.9739 52.1342 48.0601C52.0377 48.1463 51.986 48.2612 51.9905 48.3793C51.995 48.4975 52.0553 48.6093 52.1581 48.6902C52.1767 48.7014 53.2817 49.5697 54.5939 50.6719C52.6947 50.9124 47.4034 51.0883 40.3803 47.2339C40.1041 47.0824 39.8278 46.9266 39.5462 46.7618C38.5942 46.2102 37.5003 45.8547 36.3534 45.7242C35.7144 45.6362 35.0872 45.496 34.4808 45.3056C34.4595 45.1943 34.433 45.0474 34.4038 44.8715C34.1142 43.2127 33.4448 38.9642 33.7848 37.3098C34.1248 35.6555 35.3202 32.1017 35.8328 30.6143L37.1397 31.7098C37.1885 31.7516 37.2468 31.7847 37.3111 31.8073C37.3754 31.8298 37.4445 31.8414 37.5142 31.8412H38.3722C38.3471 31.8973 38.338 31.9575 38.3456 32.0171C38.3616 32.1596 38.7414 35.5397 40.2581 37.7641C41.0523 38.9308 40.7575 40.6544 40.3909 41.8545C40.247 42.3268 40.0696 42.7915 39.8597 43.2461C39.8327 43.3 39.8187 43.3579 39.8185 43.4163C39.8184 43.4748 39.832 43.5327 39.8587 43.5867C39.8854 43.6408 39.9245 43.6898 39.9739 43.7311C40.0233 43.7724 40.082 43.805 40.1466 43.8272C40.2102 43.8507 40.2789 43.8628 40.3484 43.8628C40.4535 43.8632 40.5564 43.8373 40.6439 43.7886C40.7314 43.7398 40.7996 43.6703 40.8398 43.589C41.0445 43.1587 41.2184 42.7185 41.3605 42.2708C42.577 41.7454 48.9069 39.2937 52.7637 43.3463C52.9178 43.5088 53.0692 43.6803 53.2153 43.8651C53.2639 43.9258 53.3295 43.9756 53.4063 44.0102C53.4832 44.0447 53.569 44.0629 53.6562 44.0632C53.7523 44.0631 53.8466 44.0411 53.9289 43.9996C54.0113 43.9581 54.0787 43.8987 54.1239 43.8276C54.1692 43.7565 54.1906 43.6765 54.1859 43.5961C54.1812 43.5156 54.1505 43.4378 54.0972 43.3708C54.0414 43.3017 53.9856 43.2349 53.9298 43.1681C54.9147 42.5531 55.9917 42.0493 57.1333 41.6697C58.055 41.3802 60.8972 42.1595 62.6875 42.783V52.5246Z" fill="#7DD1EC"/>
<path id="Vector_2" d="M50.1286 46.7643C46.6675 47.1784 43.3658 45.2992 43.334 45.2792C43.2181 45.2118 43.075 45.1859 42.9363 45.207C42.7976 45.228 42.6745 45.2945 42.5942 45.3916C42.5139 45.4887 42.4829 45.6086 42.508 45.7249C42.5332 45.8412 42.6124 45.9444 42.7283 46.0117C42.8611 46.0896 45.706 47.715 49.09 47.715C49.4873 47.7161 49.8841 47.693 50.2774 47.646C50.415 47.6276 50.5384 47.5647 50.6212 47.4708C50.704 47.3769 50.7394 47.2595 50.7199 47.1439C50.7004 47.0282 50.6275 46.9237 50.5169 46.8527C50.4063 46.7817 50.2669 46.7499 50.1286 46.7643Z" fill="#7DD1EC"/>
<path id="Vector_3" d="M33.5299 14.0274C33.4594 13.9253 33.3434 13.8508 33.2074 13.8204C33.0715 13.7899 32.9266 13.8059 32.8047 13.8648C31.7661 14.3636 30.1246 15.1763 28.576 16.0313C27.5825 15.7396 26.3182 16.0357 25.3274 16.3942C25.8108 15.4746 25.8082 14.8957 25.354 14.5439C24.8785 14.1765 23.9647 14.0118 20.7905 15.5726C19.1569 16.3764 17.68 17.267 17.619 17.3049C17.5592 17.338 17.5081 17.3809 17.4687 17.431C17.4293 17.481 17.4023 17.5373 17.3895 17.5963C17.3766 17.6554 17.3782 17.716 17.394 17.7745C17.4098 17.8331 17.4395 17.8883 17.4814 17.937C17.5234 17.9856 17.5766 18.0267 17.6379 18.0576C17.6992 18.0886 17.7674 18.1089 17.8383 18.1172C17.9092 18.1256 17.9813 18.1218 18.0505 18.1062C18.1196 18.0905 18.1842 18.0634 18.2405 18.0263C21.0615 16.3185 24.0125 15.0135 24.6208 15.1985C24.6421 15.2898 24.6633 15.7485 23.5849 17.2336C23.5227 17.3197 23.4971 17.4208 23.5123 17.5206C23.5274 17.6204 23.5825 17.713 23.6684 17.7832C23.7544 17.8534 23.8661 17.8972 23.9855 17.9074C24.1049 17.9175 24.2249 17.8935 24.326 17.8392C25.1945 17.3724 26.1537 17.0363 27.1602 16.8462C25.7471 17.699 24.6421 18.5117 24.5332 19.0215C24.5107 19.1153 24.5133 19.2121 24.5409 19.3049C24.5684 19.3977 24.6202 19.4842 24.6925 19.5581C24.8632 19.7203 25.0753 19.8482 25.3131 19.9322C25.5508 20.0163 25.8081 20.0543 26.0658 20.0435C26.9158 20.0435 27.9066 19.6895 28.6902 19.1574C29.8855 18.3447 30.2043 17.3405 29.511 16.5944C30.709 15.9397 32.0504 15.254 33.336 14.635C33.4577 14.5759 33.5465 14.4787 33.5828 14.3648C33.6192 14.2509 33.6001 14.1295 33.5299 14.0274ZM28.0208 18.4656C27.2 19.0244 26.111 19.2894 25.6435 19.0779C25.941 18.6949 27.1018 17.9468 28.6185 17.0895C28.6367 17.1048 28.6536 17.1212 28.669 17.1385C29.155 17.6529 28.2147 18.3342 28.0208 18.4656Z" fill="#7DD1EC"/>
<path id="Vector_4" d="M31.3438 19.5944C31.6372 19.5944 31.875 19.395 31.875 19.1491C31.875 18.9032 31.6372 18.7038 31.3438 18.7038C31.0503 18.7038 30.8125 18.9032 30.8125 19.1491C30.8125 19.395 31.0503 19.5944 31.3438 19.5944Z" fill="#7DD1EC"/>
<path id="Vector_5" d="M30.2812 35.6263H15.4062C15.1128 35.6263 14.875 35.8257 14.875 36.0717V38.7438C14.875 38.9897 15.1128 39.1891 15.4062 39.1891H30.2812C30.5747 39.1891 30.8125 38.9897 30.8125 38.7438V36.0717C30.8125 35.8257 30.5747 35.6263 30.2812 35.6263Z" fill="#7DD1EC"/>
<path id="Vector_6" d="M28.2306 23.1571H15.4062C15.1128 23.1571 14.875 23.3565 14.875 23.6024V26.2745C14.875 26.5205 15.1128 26.7199 15.4062 26.7199H28.2306C28.524 26.7199 28.7619 26.5205 28.7619 26.2745V23.6024C28.7619 23.3565 28.524 23.1571 28.2306 23.1571Z" fill="#7DD1EC"/>
<path id="Vector_7" d="M25.6647 29.3918H15.4062C15.1128 29.3918 14.875 29.5911 14.875 29.8371V32.5092C14.875 32.7551 15.1128 32.9545 15.4062 32.9545H25.6647C25.9581 32.9545 26.1959 32.7551 26.1959 32.5092V29.8371C26.1959 29.5911 25.9581 29.3918 25.6647 29.3918Z" fill="#7DD1EC"/>
<path id="Vector_8" d="M13.0953 37.007C12.9804 36.9259 12.8502 36.8612 12.7102 36.8155L13.1617 36.3546C13.2257 36.2894 13.2663 36.2102 13.2786 36.1264C13.2909 36.0425 13.2745 35.9575 13.2314 35.8811C13.1882 35.8048 13.12 35.7403 13.0348 35.6952C12.9496 35.6502 12.8508 35.6263 12.75 35.6266H10.8906C10.7497 35.6266 10.6146 35.6735 10.515 35.757C10.4154 35.8405 10.3594 35.9538 10.3594 36.0719C10.3594 36.19 10.4154 36.3032 10.515 36.3868C10.6146 36.4703 10.7497 36.5172 10.8906 36.5172H11.6291L11.2758 36.8801C11.2075 36.9501 11.1663 37.0359 11.1575 37.126C11.1488 37.2161 11.173 37.3063 11.2269 37.3846C11.2808 37.4629 11.3619 37.5256 11.4594 37.5644C11.5568 37.6031 11.6661 37.6161 11.7725 37.6015C11.9886 37.5698 12.2111 37.5996 12.4047 37.6861C12.4286 37.7017 12.4844 37.7418 12.4844 37.8887C12.4752 38.019 12.4151 38.143 12.3133 38.2416C12.2115 38.3402 12.0737 38.408 11.9213 38.4343C11.6795 38.4743 11.5016 38.3741 11.382 38.1292C11.3555 38.0751 11.3166 38.0259 11.2674 37.9845C11.2182 37.943 11.1597 37.91 11.0954 37.8875C11.031 37.865 10.9619 37.8533 10.8922 37.8531C10.8224 37.8529 10.7533 37.8643 10.6888 37.8865C10.6242 37.9087 10.5655 37.9414 10.5161 37.9826C10.4666 38.0239 10.4273 38.0729 10.4004 38.1268C10.3735 38.1808 10.3596 38.2387 10.3594 38.2971C10.3592 38.3556 10.3727 38.4136 10.3992 38.4677C10.4994 38.7166 10.689 38.9334 10.942 39.0885C11.195 39.2436 11.499 39.3292 11.8124 39.3338C11.9175 39.3344 12.0225 39.3262 12.1258 39.3093C12.5202 39.2435 12.876 39.0668 13.1344 38.8085C13.3928 38.5502 13.5383 38.2258 13.5469 37.8887C13.5551 37.7228 13.5187 37.5575 13.4406 37.4049C13.3624 37.2523 13.2445 37.1163 13.0953 37.007Z" fill="#7DD1EC"/>
<path id="Vector_9" d="M11.0977 29.5944C10.9289 29.6658 10.7786 29.7646 10.6555 29.885C10.5325 30.0054 10.439 30.145 10.3805 30.2957C10.361 30.3519 10.3548 30.4107 10.3624 30.4688C10.37 30.5269 10.3912 30.5833 10.4247 30.6345C10.4582 30.6858 10.5035 30.731 10.5579 30.7676C10.6123 30.8043 10.6748 30.8315 10.7418 30.8479C10.8087 30.8643 10.8789 30.8694 10.9482 30.8631C11.0176 30.8567 11.0848 30.839 11.1459 30.8109C11.2071 30.7827 11.2611 30.7448 11.3048 30.6992C11.3484 30.6536 11.381 30.6012 11.4005 30.5451C11.4309 30.4844 11.484 30.4336 11.5519 30.4004C11.6874 30.367 11.8331 30.3789 11.9583 30.4338C11.9238 30.7299 11.265 31.5381 10.508 32.2017C10.4356 32.2644 10.3869 32.3437 10.368 32.4295C10.349 32.5154 10.3607 32.604 10.4015 32.6843C10.4423 32.7646 10.5105 32.833 10.5975 32.881C10.6844 32.9291 10.7864 32.9545 10.8905 32.9542H12.7499C12.8908 32.9542 13.0259 32.9073 13.1255 32.8238C13.2252 32.7403 13.2811 32.627 13.2811 32.5089C13.2811 32.3908 13.2252 32.2776 13.1255 32.194C13.0259 32.1105 12.8908 32.0636 12.7499 32.0636H12.0566C12.6011 31.478 13.1297 30.7455 12.9996 30.2089C12.9688 30.0803 12.9002 29.9602 12.8 29.8595C12.6998 29.7588 12.5712 29.6807 12.4258 29.6322C12.2213 29.5447 11.9963 29.496 11.7668 29.4894C11.5373 29.4829 11.3089 29.5187 11.0977 29.5944Z" fill="#7DD1EC"/>
<path id="Vector_10" d="M10.8349 24.3929L11.1563 24.2771V26.2734C11.1563 26.3915 11.2122 26.5048 11.3119 26.5883C11.4115 26.6718 11.5466 26.7188 11.6875 26.7188C11.8284 26.7188 11.9635 26.6718 12.0632 26.5883C12.1628 26.5048 12.2188 26.3915 12.2188 26.2734V23.6016C12.2189 23.5278 12.1971 23.4551 12.1554 23.3901C12.1138 23.3251 12.0535 23.2699 11.98 23.2292C11.9065 23.1886 11.8221 23.1639 11.7345 23.1574C11.6468 23.1509 11.5585 23.1627 11.4777 23.1919L10.4152 23.5749C10.3479 23.5961 10.2865 23.6285 10.2347 23.6702C10.1828 23.7118 10.1416 23.7619 10.1134 23.8173C10.0853 23.8727 10.0709 23.9324 10.071 23.9926C10.0712 24.0528 10.0859 24.1124 10.1143 24.1677C10.1428 24.223 10.1843 24.2729 10.2363 24.3144C10.2884 24.3559 10.35 24.3881 10.4174 24.4091C10.4847 24.43 10.5564 24.4393 10.6282 24.4364C10.7 24.4335 10.7703 24.4184 10.8349 24.392V24.3929Z" fill="#7DD1EC"/>
</g>
</g>
</g>
</svg>
