<svg width="22" height="22" viewBox="0 0 22 22" fill="none" xmlns="http://www.w3.org/2000/svg">
<g id="8201353_comment_chat_message_ui_bubble_icon 1">
<g id="g2206">
<path id="path2142" d="M3.01579 14.5611L1.83746 18.5634C1.63817 19.2422 2.26379 19.875 2.94479 19.6835L6.96577 18.5462C10.3653 20.2501 14.4928 19.6612 17.2053 16.9477C20.6652 13.4874 20.6652 7.84914 17.2053 4.38884C13.7454 0.928551 7.83556 1.20171 4.75915 4.27807C1.68274 7.35445 1.35435 11.1717 3.01579 14.5611ZM15.9326 15.6752C13.6767 17.9319 10.2023 18.403 7.42831 16.8261C7.21928 16.7071 6.97131 16.6766 6.73969 16.7416L4.02382 17.5085L4.81933 14.8088C4.888 14.5772 4.86073 14.3277 4.74355 14.1165C3.20101 11.3482 3.50414 8.0791 6.01062 5.57248C8.51709 3.06586 13.1606 2.88909 15.9326 5.66169C18.7047 8.43426 18.7047 12.9028 15.9326 15.6752Z" fill="#134563"/>
</g>
</g>
</svg>
