<svg width="42" height="39" viewBox="0 0 42 39" fill="none" xmlns="http://www.w3.org/2000/svg">
<path id="Vector" d="M16.8591 1.75764C15.0211 0.626485 12.7674 0.00870122 10.448 0.00870122C4.67153 0.00870122 0 3.72411 0 8.31833V8.85781C0 10.2326 0.404793 11.5813 1.17062 12.8168L3.7416 16.9151C4.23391 17.6895 4.57307 18.5161 4.76999 19.3688L8.7851 37.2759C9.00391 38.2504 10.0542 38.9639 11.2904 38.9987C12.5267 39.0335 13.6317 38.3548 13.9161 37.3977L17.0779 26.8432C17.5264 25.3901 19.1456 24.372 21.0055 24.372C22.8653 24.372 24.4845 25.3901 24.9221 26.8345L28.0839 37.389C28.3683 38.3548 29.4733 39.0248 30.7096 38.99C31.9458 38.9552 32.9961 38.2417 33.2149 37.2672L37.23 19.3601C37.4269 18.5074 37.7661 17.6808 38.2584 16.9064L40.8294 12.8081C41.6061 11.5813 42 10.2239 42 8.84911V8.66638C42 3.88073 37.1206 0 31.1034 0C28.4668 0 25.9177 0.765704 23.9265 2.14049L23.5765 2.38413L25.7098 3.70671C26.4756 4.17657 26.6069 5.05539 26.0161 5.66447C25.4254 6.27356 24.3204 6.37797 23.5546 5.90811L20.8851 4.25488L16.8372 1.74894L16.8591 1.75764Z" fill="#7DD1EC"/>
</svg>
