<svg width="43" height="52" viewBox="0 0 43 52" fill="none" xmlns="http://www.w3.org/2000/svg">
<g id="Group">
<path id="Vector" fill-rule="evenodd" clip-rule="evenodd" d="M11.5476 7.75684C11.645 12.9823 13.5062 18.1076 16.389 20.8599C19.721 24.4998 25.078 23.3637 28.1723 19.2196C31.1888 15.1787 31.0521 11.9208 31.0521 7.10647C31.0521 2.41071 26.0571 -1.0148 21.6481 0.273645C16.1812 -0.908015 11.5476 1.88387 11.5476 7.75684ZM15.1862 43.7708C15.1862 47.0887 10.3822 47.031 10.3822 43.9163C10.3822 41.6944 11.5763 43.9324 10.3991 40.2603C9.32276 36.9013 8.95988 31.2632 9.95939 27.7726C10.0837 27.3388 10.3412 26.6443 10.3822 26.157C8.89838 26.2806 5.44801 27.6488 4.26713 28.4851C3.37886 29.1136 2.77756 29.6352 2.27702 30.716C0.952727 33.5694 0.387939 37.8546 0.0206163 41.1244C-0.253796 43.5681 2.30189 43.767 2.30189 46.4881C2.30189 47.1356 3.20469 47.9432 3.90426 47.9432L16.4725 51.7032L30.3848 51.5115C30.826 51.5115 35.8232 49.3597 36.0309 49.0165C36.5182 48.2095 37.2234 49.0385 37.1531 48.1993C37.0317 46.7536 42.964 44.8258 42.762 43.4165C42.6632 42.7331 42.5907 42.0761 42.5527 41.4417C42.5073 40.6867 42.3559 40.029 42.2871 39.3785C42.0143 36.8104 41.5021 34.3148 40.7163 31.9245C39.8339 29.2445 38.5974 28.496 36.1976 27.4168C35.4631 27.0861 33.5001 26.3726 32.6543 26.3025C33.0538 27.135 32.6668 31.0567 32.363 31.6888C36.6526 33.9584 35.4155 36.5396 35.2743 39.5496C35.1842 41.4717 35.057 47.1186 32.363 47.1186C31.7544 47.1186 30.3254 47.2759 30.3254 46.3912C30.3254 45.2352 30.9254 45.6508 31.894 45.4854C32.5759 45.3698 32.611 45.1203 32.7047 44.9865C33.4261 43.9498 33.5908 40.9538 33.669 39.5452C33.7576 37.9407 34.2177 36.4124 33.6536 35.0558C32.8553 33.1352 29.9178 31.9288 27.8129 34.2716C27.1822 34.9731 26.9736 35.8722 26.6327 36.8754C25.8995 39.033 24.7932 40.8768 24.7932 43.0432C24.7932 44.7691 26.3948 43.4639 26.3948 45.2265C26.3948 46.5179 23.0468 45.6661 23.0468 43.1882C23.0468 41.4322 24.0154 39.1283 24.6256 37.4893C24.8722 36.8271 25.0558 36.3742 25.2848 35.6741C25.6923 34.4266 26.162 33.3965 27.0562 32.6414C28.1492 31.7195 28.8208 31.3975 30.7612 31.3975C31.228 29.395 31.3744 27.7276 30.9068 25.7207C29.8423 25.6314 28.692 24.929 27.7043 24.8471C27.5169 25.6519 27.133 26.6455 26.8519 27.3427C25.9147 29.67 25.268 31.0778 24.0036 33.2281L23.3378 34.3089C23.3378 33.4513 23.01 32.2668 22.8592 31.2922C22.454 28.6604 22.7891 30.2137 23.1915 28.4856C22.5161 28.0335 21.8949 27.2842 21.2994 26.8848C20.5268 27.2938 20.0352 27.9675 19.261 28.4856C20.1448 30.3271 19.8478 29.9071 19.49 32.0627C19.3665 32.8074 19.1718 33.6437 19.1163 34.3089C19.0928 34.2824 19.0613 34.2048 19.0525 34.2268L18.5074 33.3167C17.3192 31.339 15.054 26.7707 14.8946 24.8471C14.471 24.8558 12.7083 25.3196 12.4157 25.7156C11.4266 27.048 10.8647 32.1358 11.0878 34.1844C11.3109 36.2294 11.2919 38.0257 12.0637 40.0508C12.9388 42.3444 11.9093 41.0209 13.7385 41.724C14.3755 41.9695 15.1862 42.9082 15.1862 43.7708Z" fill="#7DD1EC"/>
</g>
</svg>
