<svg width="18" height="11" viewBox="0 0 18 11" fill="none" xmlns="http://www.w3.org/2000/svg">
<path id="Vector" d="M17.659 3.63229C17.7961 3.54349 18 3.62656 18 3.76693V9.625C18 10.3841 17.2441 11 16.3125 11H1.6875C0.755859 11 0 10.3841 0 9.625V3.76979C0 3.62656 0.200391 3.54635 0.341016 3.63516C1.12852 4.13359 2.17266 4.76667 5.75859 6.88932C6.50039 7.33047 7.75195 8.25859 9 8.25286C10.2551 8.26146 11.5312 7.31328 12.2449 6.88932C15.8309 4.76667 16.8715 4.13073 17.659 3.63229ZM9 7.33333C9.81563 7.34479 10.9898 6.49688 11.5805 6.1474C16.2457 3.3888 16.6008 3.14818 17.6766 2.46068C17.8805 2.33177 18 2.13125 18 1.91927V1.375C18 0.615885 17.2441 0 16.3125 0H1.6875C0.755859 0 0 0.615885 0 1.375V1.91927C0 2.13125 0.119531 2.32891 0.323437 2.46068C1.39922 3.14531 1.7543 3.3888 6.41953 6.1474C7.01016 6.49688 8.18437 7.34479 9 7.33333Z" fill="black" fill-opacity="0.33"/>
</svg>
