<svg width="30" height="29" viewBox="0 0 30 29" fill="none" xmlns="http://www.w3.org/2000/svg">
<path id="Vector" d="M29.9921 14.4717C29.9921 15.4912 29.2108 16.2898 28.3253 16.2898H26.6585L26.695 25.3637C26.695 25.5166 26.6846 25.6695 26.6689 25.8225V26.7344C26.6689 27.9861 25.7366 29 24.5854 29H23.752C23.6947 29 23.6374 29 23.5801 28.9943C23.5072 29 23.4343 29 23.3614 29H21.6685H20.4184C19.2673 29 18.3349 27.9861 18.3349 26.7344V25.375V21.75C18.3349 20.7475 17.59 19.9375 16.6681 19.9375H13.3345C12.4125 19.9375 11.6677 20.7475 11.6677 21.75V25.375V26.7344C11.6677 27.9861 10.7353 29 9.58415 29H8.33404H6.67244C6.59431 29 6.51618 28.9943 6.43805 28.9887C6.37554 28.9943 6.31304 29 6.25053 29H5.41713C4.26599 29 3.33362 27.9861 3.33362 26.7344V20.3906C3.33362 20.3396 3.33362 20.283 3.33883 20.232V16.2898H1.66681C0.729229 16.2898 0 15.4969 0 14.4717C0 13.9619 0.156263 13.5088 0.520878 13.1123L13.8762 0.453125C14.2408 0.0566406 14.6575 0 15.0221 0C15.3867 0 15.8034 0.113281 16.116 0.396484L29.4192 13.1123C29.8359 13.5088 30.0442 13.9619 29.9921 14.4717Z" fill="#00ABD1"/>
</svg>
