<svg width="55" height="48" viewBox="0 0 55 48" fill="none" xmlns="http://www.w3.org/2000/svg">
<path id="Vector" d="M16.5 4.5C16.5 2.01562 18.3477 0 20.625 0H34.375C36.6523 0 38.5 2.01562 38.5 4.5V48H31.625V40.5C31.625 38.0156 29.7773 36 27.5 36C25.2227 36 23.375 38.0156 23.375 40.5V48H16.5V4.5ZM4.125 9H13.75V48H4.125C1.84766 48 0 45.9844 0 43.5V30H6.875C7.63125 30 8.25 29.325 8.25 28.5C8.25 27.675 7.63125 27 6.875 27H0V21H6.875C7.63125 21 8.25 20.325 8.25 19.5C8.25 18.675 7.63125 18 6.875 18H0V13.5C0 11.0156 1.84766 9 4.125 9ZM50.875 9C53.1523 9 55 11.0156 55 13.5V18H48.125C47.3687 18 46.75 18.675 46.75 19.5C46.75 20.325 47.3687 21 48.125 21H55V27H48.125C47.3687 27 46.75 27.675 46.75 28.5C46.75 29.325 47.3687 30 48.125 30H55V43.5C55 45.9844 53.1523 48 50.875 48H41.25V9H50.875Z" fill="#7DD1EC"/>
</svg>
