<svg width="52" height="37" viewBox="0 0 52 37" fill="none" xmlns="http://www.w3.org/2000/svg">
<path id="Vector" d="M50.7693 29.674C52.4084 26.2754 52.3955 22.5835 50.7328 19.1907C49.07 15.7979 45.8537 12.9008 41.6 10.9643C41.5435 10.4777 41.3858 9.99971 41.132 9.54601L43.3333 7.97968C43.4958 7.86503 43.6247 7.72862 43.7127 7.57833C43.8007 7.42803 43.8461 7.26683 43.8461 7.10402C43.8461 6.9412 43.8007 6.78 43.7127 6.62971C43.6247 6.47941 43.4958 6.34301 43.3333 6.22835L43.108 6.06802L45.76 4.18102C45.9225 4.06636 46.0514 3.92996 46.1394 3.77966C46.2274 3.62937 46.2727 3.46817 46.2727 3.30535C46.2727 3.14254 46.2274 2.98133 46.1394 2.83104C46.0514 2.68075 45.9225 2.54434 45.76 2.42969L42.7787 0.357687C42.4644 0.135717 42.0427 0.00774126 41.6 2.06143e-05C41.3719 -0.00091782 41.1457 0.0301931 40.9346 0.0915694C40.7234 0.152946 40.5313 0.24338 40.3693 0.357687L37.6827 2.25702L37.44 2.08435C37.1171 1.8565 36.6814 1.72805 36.2267 1.72669C35.9986 1.72575 35.7724 1.75686 35.5612 1.81824C35.35 1.87961 35.158 1.97005 34.996 2.08435L20.436 12.4443C20.1287 12.6737 19.9573 12.9785 19.9573 13.2953C19.9573 13.6122 20.1287 13.917 20.436 14.1463L18.1827 15.7497C18.0202 15.8643 17.8913 16.0007 17.8033 16.151C17.7153 16.3013 17.6699 16.4625 17.6699 16.6253C17.6699 16.7882 17.7153 16.9494 17.8033 17.0997C17.8913 17.25 18.0202 17.3864 18.1827 17.501L21.6493 19.9677C21.8113 20.082 22.0034 20.1724 22.2146 20.2338C22.4257 20.2952 22.6519 20.3263 22.88 20.3253C23.3347 20.324 23.7705 20.1955 24.0933 19.9677L26.3467 18.3643C26.669 18.583 27.0973 18.705 27.5427 18.705C27.988 18.705 28.4163 18.583 28.7387 18.3643L32.0147 16.0333C32.8536 16.2863 33.7555 16.4164 34.6667 16.4157C35.6749 16.4079 36.6687 16.2438 37.5787 15.9347C40.6275 17.3792 42.7944 19.5917 43.6434 22.127C44.4924 24.6624 43.9605 27.3324 42.1547 29.6H17.6107L16.4147 27.75H26C26.4597 27.75 26.9006 27.6201 27.2257 27.3888C27.5507 27.1575 27.7333 26.8438 27.7333 26.5167V22.8167C27.7333 22.4896 27.5507 22.1759 27.2257 21.9446C26.9006 21.7133 26.4597 21.5833 26 21.5833H1.73333C1.27362 21.5833 0.832745 21.7133 0.507681 21.9446C0.182618 22.1759 0 22.4896 0 22.8167V26.5167C0 26.8438 0.182618 27.1575 0.507681 27.3888C0.832745 27.6201 1.27362 27.75 1.73333 27.75H4.92267L6.136 29.6H1.73333C1.27362 29.6 0.832745 29.7299 0.507681 29.9612C0.182618 30.1925 0 30.5062 0 30.8333V35.7667C0 36.0938 0.182618 36.4075 0.507681 36.6388C0.832745 36.8701 1.27362 37 1.73333 37H50.2667C50.7264 37 51.1673 36.8701 51.4923 36.6388C51.8174 36.4075 52 36.0938 52 35.7667V30.8333C51.9937 30.5723 51.8712 30.3194 51.65 30.111C51.4289 29.9027 51.1205 29.7497 50.7693 29.674ZM32.6907 13.4557C32.4821 13.3425 32.2851 13.2189 32.1013 13.0857L31.9973 12.987C31.868 12.8749 31.752 12.7552 31.6507 12.6293L31.564 12.506C31.4767 12.3796 31.4071 12.2474 31.356 12.1113V11.988C31.3015 11.8055 31.2725 11.6196 31.2693 11.433C31.2693 10.7788 31.6346 10.1514 32.2847 9.68882C32.9348 9.22623 33.8166 8.96635 34.736 8.96635C34.9982 8.9686 35.2595 8.98926 35.516 9.02802H35.7067C35.8912 9.06665 36.071 9.11616 36.244 9.17601L36.4347 9.25002C36.6068 9.31666 36.7694 9.39514 36.92 9.48435C36.9738 9.5063 37.0209 9.53565 37.0587 9.57068C37.2539 9.69135 37.4284 9.82796 37.5787 9.97768C37.9725 10.4097 38.1665 10.9186 38.1333 11.433C38.1333 11.433 38.1333 11.4947 38.1333 11.5317C38.1317 11.5522 38.1317 11.5728 38.1333 11.5933C38.1037 11.9563 37.9616 12.31 37.7173 12.6293C37.6104 12.7801 37.4699 12.9175 37.3013 13.0363C37.1329 13.1679 36.9472 13.2877 36.7467 13.394C36.167 13.6819 35.4775 13.8368 34.7707 13.838C34.0386 13.8655 33.3124 13.732 32.6907 13.4557Z" fill="#7DD1EC"/>
</svg>
