<svg width="41" height="38" viewBox="0 0 41 38" fill="none" xmlns="http://www.w3.org/2000/svg">
<g id="Group">
<path id="Vector" d="M20.0559 21.8699C14.8665 21.8699 10.6618 18.9465 9.67441 15.2312H30.4349C29.4327 18.9478 25.2271 21.8699 20.0559 21.8699Z" fill="white" stroke="#7DD1EC"/>
<path id="Vector_2" d="M32.202 23.5638H28.512C28.1191 23.5923 27.7466 23.7036 27.4186 23.8759L22.1228 27.4035V38H39.2916C40.2311 38 40.9999 37.3894 40.9999 36.6432V30.4563C40.9999 26.6573 37.0536 23.5638 32.202 23.5638ZM31.7305 33.4955H27.9721C27.0274 33.4955 26.2638 32.889 26.2638 32.1387C26.2638 31.3884 27.0274 30.7819 27.9721 30.7819H31.7305C32.6752 30.7819 33.4388 31.3884 33.4388 32.1387C33.4388 32.889 32.6752 33.4955 31.7305 33.4955Z" fill="#7DD1EC"/>
<path id="Vector_3" d="M12.6417 23.8488C12.3393 23.686 11.9566 23.5991 11.5996 23.5638H8.79792C3.94625 23.5638 0 26.6573 0 30.4563V36.6432C0 37.3894 0.76875 38 1.70833 38H18.7062V27.5663L12.6417 23.8488Z" fill="#7DD1EC"/>
<path id="Vector_4" d="M20.3631 28.5839L18.7061 27.5663V38H22.1227V27.4035L20.3631 28.5839Z" fill="white"/>
<path id="Vector_5" d="M31.7306 30.7819H27.9722C27.0275 30.7819 26.2639 31.3884 26.2639 32.1387C26.2639 32.889 27.0275 33.4955 27.9722 33.4955H31.7306C32.6753 33.4955 33.4389 32.889 33.4389 32.1387C33.4389 31.3884 32.6753 30.7819 31.7306 30.7819Z" fill="white"/>
<path id="Vector_6" d="M8.3539 12.0312L8.9689 13.7272V13.7408C8.9689 14.08 9.00306 14.4056 9.05431 14.7312H31.0576C31.1089 14.392 31.1431 14.0257 31.1601 13.6729L31.741 12.0312L34.2351 5.01669C34.4401 4.44684 34.1497 3.83629 33.5347 3.51067C24.5831 -1.17022 15.5118 -1.17022 6.57723 3.51067C5.94515 3.83629 5.65473 4.44684 5.85973 5.01669L8.3539 12.0312Z" fill="#7DD1EC"/>
</g>
</svg>
