<svg width="24" height="24" viewBox="0 0 24 24" fill="none" xmlns="http://www.w3.org/2000/svg">
<g id="8680209_notification_2_line_icon 1" clip-path="url(#clip0_152_104)">
<g id="Group">
<path id="Vector" d="M22 19.5814H2V17.6279H3V10.821C3 5.94898 7.03 2 12 2C16.97 2 21 5.94898 21 10.821V17.6279H22V19.5814ZM5 17.6279H19V10.821C19 7.02828 15.866 3.95349 12 3.95349C8.134 3.95349 5 7.02828 5 10.821V17.6279ZM9.5 20.5581H14.5C14.5 21.2058 14.2366 21.8269 13.7678 22.2848C13.2989 22.7427 12.663 23 12 23C11.337 23 10.7011 22.7427 10.2322 22.2848C9.76339 21.8269 9.5 21.2058 9.5 20.5581Z" fill="#065C6F"/>
</g>
</g>
<defs>
<clipPath id="clip0_152_104">
<rect width="24" height="24" fill="white"/>
</clipPath>
</defs>
</svg>
