<svg width="64" height="48" viewBox="0 0 64 48" fill="none" xmlns="http://www.w3.org/2000/svg">
<g id="5929214_avatar_doctor_health_hospital_man_icon 1">
<g id="30-Doctor">
<path id="Vector" d="M23 8.71503V12.75H22C21.4701 12.7512 20.9623 12.9096 20.5875 13.1907C20.2128 13.4717 20.0016 13.8526 20 14.25V10.5C20.7277 9.68522 21.7765 9.06119 23 8.71503Z" fill="white"/>
<path id="Vector_2" d="M44 10.5V14.25C43.9984 13.8526 43.7872 13.4717 43.4125 13.1907C43.0377 12.9096 42.5299 12.7512 42 12.75H41V8.71503C42.2235 9.06119 43.2723 9.68522 44 10.5Z" fill="white"/>
<path id="Vector_3" d="M53.19 38.9625L54 41.25H51H45V39H53L53.19 38.9625Z" fill="#7DD1EC"/>
<path id="Vector_4" d="M51 41.25V47.25H45V43.5V41.25H51Z" fill="white"/>
<path id="Vector_5" d="M50 30L39.8601 27.825L32 32.25L24.14 27.825L14 30L10.8 39H19V47.25H45V39H53L53.19 38.9625L50 30ZM40 45H37C36.4701 44.9988 35.9623 44.8404 35.5876 44.5594C35.2129 44.2783 35.0016 43.8975 35 43.5V39H42V43.5C41.9985 43.8975 41.7872 44.2783 41.4125 44.5594C41.0378 44.8404 40.53 44.9988 40 45Z" fill="#7DD1EC"/>
<path id="Vector_6" d="M44 14.25V15.2925C44.0008 15.6638 43.8788 16.0294 43.645 16.3566C43.4111 16.6839 43.0727 16.9625 42.66 17.1675L41 18C38.1722 17.0349 35.1066 16.524 32 16.5C28.8934 16.524 25.8278 17.0349 23 18L21.34 17.1675C20.9273 16.9625 20.5889 16.6839 20.355 16.3566C20.1212 16.0294 19.9992 15.6638 20 15.2925V14.25C20.0016 13.8526 20.2128 13.4717 20.5875 13.1907C20.9623 12.9096 21.4701 12.7512 22 12.75H23V8.71503C25.8443 7.81832 28.9174 7.40346 32 7.50003C35.0827 7.40346 38.1557 7.81832 41 8.71503V12.75H42C42.5299 12.7512 43.0377 12.9096 43.4125 13.1907C43.7872 13.4717 43.9984 13.8526 44 14.25Z" fill="white"/>
<path id="Vector_7" d="M41 8.715C38.1557 7.81829 35.0827 7.40343 32 7.5C28.9173 7.40343 25.8443 7.81829 23 8.715C21.7765 9.06116 20.7277 9.6852 20 10.5V6.75C20 5.1587 20.8429 3.63258 22.3431 2.50736C23.8434 1.38214 25.8783 0.75 28 0.75H36C38.1217 0.75 40.1566 1.38214 41.6569 2.50736C43.1571 3.63258 44 5.1587 44 6.75V10.5C43.2723 9.6852 42.2235 9.06116 41 8.715Z" fill="#7DD1EC"/>
<path id="Vector_8" d="M23 10.215V8.71503C21.7765 9.06119 20.7277 9.68522 20 10.5V12C20.7277 11.1852 21.7765 10.5612 23 10.215Z" fill="white"/>
<path id="Vector_9" d="M41 8.71503V10.215C42.2235 10.5612 43.2723 11.1852 44 12V10.5C43.2723 9.68522 42.2235 9.06119 41 8.71503Z" fill="white"/>
<path id="Vector_10" d="M32 9.00003C35.0827 8.90346 38.1557 9.31832 41 10.215V8.71503C38.1557 7.81832 35.0827 7.40346 32 7.50003C28.9173 7.40346 25.8443 7.81832 23 8.71503V10.215C25.8443 9.31832 28.9173 8.90346 32 9.00003Z" fill="white"/>
<path id="Vector_11" d="M42 39V43.5C41.9984 43.8975 41.7872 44.2783 41.4125 44.5593C41.0377 44.8404 40.5299 44.9988 40 45H37C36.4701 44.9988 35.9623 44.8404 35.5875 44.5593C35.2128 44.2783 35.0016 43.8975 35 43.5V39H42Z" fill="#7DD1EC"/>
<path id="Vector_12" d="M39.8599 27.825L31.9999 32.25L24.1399 27.825L27.9999 27L31.9999 29.25L35.9999 27L39.8599 27.825Z" fill="#7DD1EC"/>
<path id="Vector_13" d="M36 22.56C34.7535 23.0141 33.3858 23.25 32 23.25C30.6142 23.25 29.2465 23.0141 28 22.56C26.7623 22.1316 25.6697 21.499 24.8039 20.7093C23.9381 19.9197 23.3214 18.9935 23 18C25.8278 17.0349 28.8934 16.524 32 16.5C35.1066 16.524 38.1722 17.0349 41 18C40.6786 18.9935 40.0619 19.9197 39.1961 20.7093C38.3303 21.499 37.2377 22.1316 36 22.56Z" fill="#7DD1EC"/>
<path id="Vector_14" d="M36 22.56V27L32 29.25L28 27V22.56C29.2465 23.0141 30.6142 23.25 32 23.25C33.3858 23.25 34.7535 23.0141 36 22.56Z" fill="white"/>
<path id="Vector_15" d="M19 41.25H13V47.25H19V41.25Z" fill="white"/>
<path id="Vector_16" d="M19 39V41.25H13H10L10.8 39H19Z" fill="#7DD1EC"/>
<path id="Vector_17" d="M51 41.25H45V47.25H48V44.25C48 43.8522 48.2107 43.4706 48.5858 43.1893C48.9609 42.908 49.4696 42.75 50 42.75H51V41.25Z" fill="white"/>
<path id="Vector_18" d="M13 41.25H19V47.25H16V44.25C16 43.8522 15.7893 43.4706 15.4142 43.1893C15.0391 42.908 14.5304 42.75 14 42.75H13V41.25Z" fill="white"/>
<path id="Vector_19" d="M36 22.56C34.7535 23.0141 33.3858 23.25 32 23.25C30.6142 23.25 29.2465 23.0141 28 22.56V27L28.706 27.3967L36 23.7502V22.56Z" fill="white"/>
<path id="Vector_20" d="M41 13.5V16.5L41.894 16.1647C42.2263 16.0402 42.5058 15.8487 42.7012 15.6117C42.8965 15.3747 43 15.1016 43 14.823V14.25C43 14.0511 42.8946 13.8603 42.7071 13.7197C42.5196 13.579 42.2652 13.5 42 13.5H41Z" fill="white"/>
<path id="Vector_21" d="M23 13.5V16.5L22.106 16.1647C21.7737 16.0402 21.4942 15.8487 21.2988 15.6117C21.1035 15.3747 21 15.1016 21 14.823V14.25C21 14.0511 21.1054 13.8603 21.2929 13.7197C21.4804 13.579 21.7348 13.5 22 13.5H23Z" fill="white"/>
<path id="Vector_22" d="M32 16.5C32.2761 16.5 32.5 16.1642 32.5 15.75C32.5 15.3358 32.2761 15 32 15C31.7239 15 31.5 15.3358 31.5 15.75C31.5 16.1642 31.7239 16.5 32 16.5Z" fill="white"/>
<path id="Vector_23" d="M34.3999 10.4902C34.3861 10.4934 34.3721 10.496 34.3579 10.4977C34.1579 10.5247 34.0049 10.2862 34.0049 10.1227C34.0049 10.077 34.0279 8.99774 36.0049 8.99774C37.9819 8.99774 38.0049 10.077 38.0049 10.1227C38.0078 10.1886 37.9887 10.2539 37.9494 10.3129C37.9101 10.3718 37.8519 10.4225 37.7799 10.4602C37.6349 10.527 37.4929 10.4647 37.3799 10.3627C37.3249 10.3117 37.2799 10.2487 37.2229 10.2007C37.1643 10.1574 37.0968 10.1214 37.0229 10.0942C36.8477 10.0174 36.6624 9.95427 36.4699 9.90599C36.2145 9.85114 35.945 9.84484 35.6855 9.88766C35.4261 9.93047 35.185 10.0211 34.9839 10.1512C34.8172 10.289 34.6195 10.4038 34.3999 10.4902Z" fill="white"/>
<path id="Vector_24" d="M29.605 10.4902C29.6188 10.4934 29.6328 10.496 29.647 10.4977C29.847 10.5247 30 10.2862 30 10.1227C30 10.077 29.977 8.99774 28 8.99774C26.023 8.99774 26 10.077 26 10.1227C25.9971 10.1886 26.0162 10.2539 26.0555 10.3129C26.0948 10.3718 26.1531 10.4225 26.225 10.4602C26.37 10.527 26.512 10.4647 26.625 10.3627C26.68 10.3117 26.725 10.2487 26.782 10.2007C26.8406 10.1574 26.9081 10.1214 26.982 10.0942C27.1572 10.0174 27.3425 9.95427 27.535 9.90599C27.7904 9.85114 28.06 9.84484 28.3194 9.88766C28.5788 9.93047 28.82 10.0211 29.021 10.1512C29.1877 10.289 29.3854 10.4038 29.605 10.4902Z" fill="white"/>
<path id="Vector_25" d="M36.5 15.375C37.0523 15.375 37.5 14.7034 37.5 13.875C37.5 13.0466 37.0523 12.375 36.5 12.375C35.9477 12.375 35.5 13.0466 35.5 13.875C35.5 14.7034 35.9477 15.375 36.5 15.375Z" fill="white"/>
<path id="Vector_26" d="M27.5 15.375C28.0523 15.375 28.5 14.7034 28.5 13.875C28.5 13.0466 28.0523 12.375 27.5 12.375C26.9477 12.375 26.5 13.0466 26.5 13.875C26.5 14.7034 26.9477 15.375 27.5 15.375Z" fill="white"/>
<path id="Vector_27" d="M39 5.25H28C27.2044 5.25 26.4413 5.01295 25.8787 4.59099C25.3161 4.16903 25 3.59674 25 3C25 2.40326 25.3161 1.83097 25.8787 1.40901C26.4413 0.987053 27.2044 0.75 28 0.75C25.8783 0.75 23.8434 1.38214 22.3431 2.50736C20.8429 3.63258 20 5.1587 20 6.75V10.5C20.7277 9.6852 21.7765 9.06116 23 8.715C25.8443 7.81829 28.9173 7.40343 32 7.5C35.0827 7.40343 38.1557 7.81829 41 8.715C42.2235 9.06116 43.2723 9.6852 44 10.5V9C44 8.00544 43.4732 7.05161 42.5355 6.34835C41.5979 5.64509 40.3261 5.25 39 5.25Z" fill="#7DD1EC"/>
<path id="Vector_28" d="M41 7.21503C38.1557 6.31832 35.0827 5.90346 32 6.00003C28.9173 5.90346 25.8443 6.31832 23 7.21503C21.7765 7.56119 20.7277 8.18523 20 9.00003V10.5C20.7277 9.68523 21.7765 9.06119 23 8.71503C25.8443 7.81832 28.9173 7.40346 32 7.50003C35.0827 7.40346 38.1557 7.81832 41 8.71503C42.2235 9.06119 43.2723 9.68523 44 10.5V9.00003C43.2723 8.18523 42.2235 7.56119 41 7.21503Z" fill="#7DD1EC"/>
<path id="Vector_29" d="M47 40.5V39H45V41.25H51H54L53.734 40.5H47Z" fill="#7DD1EC"/>
<path id="Vector_30" d="M17 40.5H10.267L10 41.25H13H19V39H17V40.5Z" fill="#7DD1EC"/>
<path id="Vector_31" d="M45 39V33.75C45.5304 33.75 46.0391 33.908 46.4142 34.1893C46.7893 34.4706 47 34.8522 47 35.25V39H45Z" fill="#7DD1EC"/>
<path id="Vector_32" d="M19 39V33.75C18.4696 33.75 17.9609 33.908 17.5858 34.1893C17.2107 34.4706 17 34.8522 17 35.25V39H19Z" fill="#7DD1EC"/>
<path id="Vector_33" d="M29.1139 27.9427L29.4139 27.7927L27.9999 27L24.1399 27.825L31.9999 32.25L33.0519 31.6575L29.0289 29.1427C28.9094 29.0681 28.8148 28.9735 28.7525 28.8666C28.6903 28.7596 28.6622 28.6433 28.6705 28.5268C28.6787 28.4103 28.7231 28.2968 28.8001 28.1954C28.877 28.094 28.9845 28.0075 29.1139 27.9427Z" fill="#7DD1EC"/>
<path id="Vector_34" d="M40 45H37C36.4849 44.9988 35.9902 44.8485 35.6191 44.5805C35.248 44.3126 35.0291 43.9475 35.008 43.5615C25.6 42.207 19 39 19 35.25V47.25H45V44.25C43.906 44.25 42.831 44.2237 41.772 44.1787C41.6057 44.4245 41.3524 44.6312 41.0398 44.7761C40.7272 44.9209 40.3675 44.9984 40 45Z" fill="#7DD1EC"/>
<path id="Vector_35" d="M42 39H35V40.5H42V39Z" fill="#7DD1EC"/>
<path id="Vector_36" d="M26.068 17.1533C25.016 17.3718 23.9899 17.655 23 18C23.3214 18.9935 23.9381 19.9197 24.8039 20.7094C25.6697 21.499 26.7623 22.1316 28 22.56C29.2465 23.0141 30.6142 23.25 32 23.25C33.3858 23.25 34.7535 23.0141 36 22.56C36.069 22.5353 36.134 22.5038 36.2 22.4783C30.894 22.2705 26.635 20.0183 26.068 17.1533Z" fill="#7DD1EC"/>
<path id="Vector_37" d="M22.5 27.75V42.4792L19.842 43.1438C19.7423 43.1687 19.6556 43.2165 19.5942 43.2804C19.5328 43.3444 19.4999 43.4212 19.5 43.5V47.25H20.5V43.77L23 43.1453L25.5 43.77V47.25H26.5V43.5C26.5001 43.4212 26.4672 43.3444 26.4058 43.2804C26.3444 43.2165 26.2577 43.1687 26.158 43.1438L23.5 42.48V27.75C23.5 27.2527 23.7634 26.7758 24.2322 26.4242C24.7011 26.0725 25.337 25.875 26 25.875H28V25.125H26C25.0717 25.125 24.1815 25.4016 23.5251 25.8938C22.8687 26.3861 22.5 27.0538 22.5 27.75Z" fill="white"/>
<path id="Vector_38" d="M38 25.125H36V25.875H38C38.663 25.875 39.2989 26.0725 39.7678 26.4242C40.2366 26.7758 40.5 27.2527 40.5 27.75V39H41.5V27.75C41.5 27.0538 41.1312 26.3861 40.4749 25.8938C39.8185 25.4016 38.9283 25.125 38 25.125Z" fill="white"/>
</g>
</g>
</svg>
