<svg width="55" height="49" viewBox="0 0 55 49" fill="none" xmlns="http://www.w3.org/2000/svg">
<g id="6643377_balance_diet_fitness_protein_vegetable_icon 1">
<g id="protein-vegetable-balance">
<path id="Vector" d="M52.8516 18.375H50.5377C51.0021 18.0442 51.416 17.6607 51.7688 17.2342C54.4221 13.9822 52.8215 11.2126 52.4842 10.7034L52.2328 9.2009C52.2178 9.10643 52.1636 9.02039 52.0808 8.9598C51.9981 8.8992 51.8929 8.86844 51.7859 8.8736L49.4828 8.97696C49.3747 8.98229 49.2727 9.02361 49.1971 9.09273C49.1215 9.16185 49.0778 9.25374 49.0746 9.3502L49.0617 9.80001C48.7616 9.41353 48.426 9.04989 48.0584 8.71282C47.6199 8.30702 47.3017 7.8104 47.1324 7.2677L46.7457 6.04079L46.7264 5.99485C46.5293 5.5791 46.199 5.22439 45.7767 4.97515C45.3544 4.72592 44.8589 4.59325 44.3523 4.59376H43.3855C42.905 4.5924 42.4337 4.71137 42.0253 4.93709C41.617 5.16282 41.288 5.48622 41.076 5.87044C41.0672 5.88602 41.0593 5.90199 41.0523 5.91829L40.5818 7.16434C40.3602 7.75943 39.9588 8.28859 39.4217 8.69368C38.3578 9.4934 37.4824 10.473 36.8459 11.5759C36.2094 12.6787 35.8245 13.883 35.7135 15.1192L34.549 14.767C34.4581 14.7393 34.3594 14.7395 34.2687 14.7676C34.178 14.7957 34.1004 14.8501 34.0484 14.922L33.2943 15.9709C33.2453 16.0395 33.2218 16.12 33.2272 16.2011C33.2326 16.2823 33.2666 16.3598 33.3244 16.4227L34.3105 17.4754C34.5612 17.7961 34.8422 18.0971 35.1506 18.375H34.8047C34.6908 18.3753 34.5817 18.4157 34.5012 18.4875C34.4207 18.5592 34.3753 18.6564 34.375 18.7578C34.3747 19.2721 34.5041 19.78 34.7536 20.2438C35.0031 20.7076 35.3664 21.1155 35.8166 21.4375H29.3605C29.1722 21.1466 28.9012 20.9049 28.5748 20.7369C28.2484 20.5689 27.878 20.4805 27.5011 20.4805C27.1241 20.4805 26.7538 20.5689 26.4273 20.7369C26.1009 20.9049 25.8299 21.1466 25.6416 21.4375H19.1834C19.6336 21.1155 19.9969 20.7076 20.2464 20.2438C20.4959 19.78 20.6253 19.2721 20.625 18.7578C20.6247 18.6564 20.5793 18.5592 20.4988 18.4875C20.4183 18.4157 20.3092 18.3753 20.1953 18.375H20.1932C21.8303 16.1911 21.9312 12.5716 20.3393 10.1426L22.0795 8.57118C22.3053 8.69715 22.5608 8.77465 22.826 8.79755C23.0911 8.82045 23.3586 8.78812 23.6073 8.70313C23.856 8.61813 24.0792 8.4828 24.2591 8.3078C24.4391 8.1328 24.5709 7.92293 24.6442 7.69476C24.7175 7.46659 24.7303 7.22637 24.6815 6.99305C24.6327 6.75973 24.5237 6.53971 24.3631 6.35035C24.2025 6.16099 23.9947 6.00748 23.7561 5.90194C23.5175 5.7964 23.2547 5.74171 22.9883 5.74219C22.8882 5.74215 22.7883 5.74984 22.6896 5.76516C22.6251 5.51708 22.498 5.28536 22.318 5.08758C22.1629 4.92569 21.9687 4.79716 21.7499 4.71164C21.5311 4.62611 21.2934 4.58581 21.0547 4.59376C20.599 4.59431 20.1622 4.75582 19.84 5.04286C19.5178 5.32991 19.3366 5.71906 19.3359 6.12501C19.3313 6.51276 19.4891 6.88812 19.7785 7.17774L18.3326 8.2879C17.6685 7.93535 16.924 7.72015 16.1541 7.65817C9.75605 7.10501 6.77402 13.5554 6.31426 14.6502C6.01777 14.7995 5.41406 15.146 4.0584 15.9518C2.76289 16.7213 2.47715 17.6304 2.53301 18.375H2.14844C2.03458 18.3753 1.92549 18.4157 1.84498 18.4875C1.76447 18.5592 1.71909 18.6564 1.71875 18.7578C1.71994 19.6712 2.12776 20.547 2.85274 21.1929C3.57772 21.8387 4.56066 22.2021 5.58594 22.2031H9.88281V22.9688C9.88315 23.0702 9.92853 23.1674 10.009 23.2391C10.0895 23.3108 10.1986 23.3513 10.3125 23.3516H25.6395C25.7909 23.5865 25.9969 23.79 26.2437 23.9484C26.4904 24.1068 26.7722 24.2166 27.0703 24.2703V28.3415H25.8457C25.7426 28.3419 25.6431 28.3751 25.5651 28.4351C25.487 28.4951 25.4357 28.578 25.4203 28.6688C24.909 31.7007 23.274 35.8983 18.3949 38.6736C18.0259 38.8808 17.7217 39.1677 17.5106 39.5077C17.2995 39.8477 17.1883 40.2298 17.1875 40.6183V41.7266H14.8242C14.4254 41.7266 14.0428 41.8677 13.7608 42.119C13.4788 42.3703 13.3203 42.7111 13.3203 43.0664C13.3203 43.4218 13.4788 43.7626 13.7608 44.0138C14.0428 44.2651 14.4254 44.4063 14.8242 44.4063H40.1758C40.5746 44.4063 40.9572 44.2651 41.2392 44.0138C41.5212 43.7626 41.6797 43.4218 41.6797 43.0664C41.6797 42.7111 41.5212 42.3703 41.2392 42.119C40.9572 41.8677 40.5746 41.7266 40.1758 41.7266H37.8125V40.6183C37.8117 40.2298 37.7005 39.8477 37.4894 39.5077C37.2783 39.1677 36.9741 38.8808 36.6051 38.6736C31.726 35.8983 30.091 31.7007 29.5797 28.6688C29.5643 28.578 29.513 28.4951 29.4349 28.4351C29.3569 28.3751 29.2574 28.3419 29.1543 28.3415H27.9297V24.2703C28.2278 24.2172 28.5096 24.1077 28.756 23.9492C29.0025 23.7907 29.2079 23.5869 29.3584 23.3516H44.6875C44.8014 23.3513 44.9104 23.3108 44.991 23.2391C45.0715 23.1674 45.1168 23.0702 45.1172 22.9688V22.2031H49.4141C50.4393 22.2021 51.4223 21.8387 52.1473 21.1929C52.8722 20.547 53.2801 19.6712 53.2812 18.7578C53.2809 18.6564 53.2355 18.5592 53.155 18.4875C53.0745 18.4157 52.9654 18.3753 52.8516 18.375ZM39.976 9.27938C40.6333 8.78381 41.1253 8.13695 41.3982 7.40934L41.858 6.18817C42.0022 5.93803 42.2211 5.72826 42.4907 5.582C42.7602 5.43575 43.0699 5.35871 43.3855 5.35938H44.3523C44.6857 5.35908 45.0119 5.44525 45.2912 5.60738C45.5704 5.76952 45.7907 6.00059 45.925 6.27239L46.3053 7.47442C46.5131 8.1401 46.9037 8.74922 47.4418 9.24684C48.0733 9.83067 48.6047 10.4943 49.0187 11.2164L48.9994 11.8385C48.5315 12.5748 47.946 13.2466 47.2613 13.8329C47.141 13.9325 47.0186 14.0301 46.8918 14.1239C46.5309 12.7113 45.3664 11.1016 43.8281 11.1016C42.0643 11.1016 40.642 13.2396 40.642 15.0101C40.6408 15.3318 40.6907 15.6521 40.7902 15.9614C40.4207 15.9614 40.0447 15.948 39.6623 15.9212C38.6058 15.8419 37.5624 15.6583 36.5514 15.3738C36.629 14.2042 36.9725 13.0609 37.5612 12.0133C38.1499 10.9656 38.9715 10.0355 39.976 9.27938ZM44.0623 15.5192C43.9699 15.5479 43.8754 15.5728 43.7809 15.5958C43.7207 15.613 43.6584 15.6283 43.5961 15.6417C43.4156 15.6877 43.2309 15.7259 43.0439 15.7604C42.9537 15.7776 42.8635 15.7929 42.7711 15.8082H42.7625C42.6529 15.8274 42.5412 15.8427 42.4295 15.8561C42.3178 15.8695 42.2104 15.8848 42.0986 15.8944C42.0931 15.8959 42.0873 15.8965 42.0814 15.8963C41.9482 15.9097 41.8172 15.9212 41.6818 15.9288C41.5607 15.6346 41.4996 15.3235 41.5014 15.0101C41.5014 13.6377 42.6293 11.8672 43.8281 11.8672C44.9152 11.8672 45.9486 13.3391 46.1248 14.6349C46.1224 14.6369 46.1194 14.6383 46.1162 14.6388C46.0415 14.6863 45.964 14.7304 45.8842 14.7708C45.826 14.8057 45.7658 14.8376 45.7037 14.8665C45.6607 14.8895 45.6199 14.9106 45.577 14.9316C45.5039 14.968 45.4309 15.0024 45.3578 15.0369C45.2848 15.0713 45.216 15.102 45.143 15.1326L45.1172 15.1441C45.0377 15.1785 44.9604 15.2111 44.8787 15.2417C44.8723 15.2436 44.868 15.2455 44.8615 15.2474C44.7777 15.2819 44.6939 15.3125 44.608 15.3431C44.4297 15.4063 44.2471 15.4656 44.0623 15.5192ZM35.0066 17.0256L34.983 16.9988L34.1859 16.149L34.5898 15.5881L35.9691 16.0073L36.0422 16.0284C37.1893 16.3797 38.382 16.5996 39.5914 16.683C40.1952 16.7286 40.8017 16.7382 41.4068 16.7117H41.4283C43.4951 16.6179 45.3084 16.0896 46.823 15.1364C47.186 14.9103 47.5293 14.6602 47.85 14.388C48.6242 13.7277 49.2819 12.9669 49.8008 12.1313C49.8354 12.077 49.8546 12.0158 49.8566 11.9533L49.8803 11.1284L49.9232 9.72344L51.44 9.65645L51.6463 10.8929C51.6567 10.9505 51.6808 11.0053 51.7172 11.0537C51.7967 11.1571 53.6293 13.6511 51.0727 16.7844C50.5212 17.428 49.8327 17.9685 49.0467 18.375H36.4482C35.8918 17.9948 35.4054 17.5395 35.0066 17.0256ZM21.0547 5.35938C21.1592 5.35322 21.264 5.36655 21.3624 5.39851C21.4608 5.43048 21.5506 5.48039 21.6262 5.54504C21.805 5.7459 21.902 5.99494 21.9012 6.25133C21.8936 6.32206 21.9082 6.39327 21.9434 6.45701C21.9786 6.52075 22.0331 6.5745 22.1006 6.61225C22.1682 6.64999 22.2462 6.67024 22.3259 6.67073C22.4057 6.67121 22.484 6.65192 22.5521 6.61501C22.6835 6.54387 22.8345 6.50675 22.9883 6.50782C23.2162 6.50782 23.4348 6.58848 23.596 6.73206C23.7571 6.87565 23.8477 7.07039 23.8477 7.27344C23.8477 7.4765 23.7571 7.67124 23.596 7.81482C23.4348 7.9584 23.2162 8.03907 22.9883 8.03907C22.8703 8.03972 22.7534 8.01825 22.6453 7.97604C22.5373 7.93383 22.4404 7.87183 22.3609 7.79407C22.2459 7.58287 22.1725 7.35561 22.1439 7.12223C22.1471 7.0583 22.1322 6.9947 22.1007 6.9372C22.0691 6.8797 22.022 6.83013 21.9635 6.79301C21.8964 6.75076 21.8169 6.72697 21.7348 6.72459C21.6527 6.72221 21.5716 6.74134 21.5016 6.77961C21.2152 6.84961 20.9136 6.85356 20.625 6.7911L20.6057 6.78536C20.4745 6.72084 20.3663 6.62464 20.2938 6.50783C20.2212 6.39101 20.187 6.25832 20.1953 6.12501C20.1953 5.92195 20.2859 5.72721 20.447 5.58363C20.6082 5.44004 20.8268 5.35938 21.0547 5.35938ZM20.5842 7.56821C20.8428 7.60618 21.1062 7.61069 21.3662 7.58161C21.4026 7.72224 21.4522 7.8599 21.5145 7.99313L19.5186 9.79809L19.4799 9.83254L18.8139 10.4336C18.71 10.1861 18.5413 9.96429 18.3219 9.78661C18.2178 9.70354 18.1031 9.6316 17.9803 9.57223L18.6527 9.05352L20.5842 7.56821ZM17.0672 10.1139C17.3173 10.129 17.5556 10.2141 17.7482 10.357C17.9934 10.5834 18.1325 10.8846 18.1371 11.1992C18.1666 11.8443 18.0684 12.4889 17.8471 13.1037C17.0436 15.6647 15.2475 16.4284 13.9627 16.3059C12.7381 16.1891 11.8938 15.3393 11.8164 14.1411C11.6252 11.2509 15.4043 10.3627 15.574 10.3245C15.5922 10.3202 15.6102 10.3151 15.6277 10.3091C16.086 10.152 16.5772 10.0854 17.0672 10.1139ZM4.53535 16.5873C6.2584 15.5652 6.68809 15.3393 6.79121 15.2895C6.81283 15.2839 6.83372 15.2762 6.85352 15.2666C6.89733 15.2479 6.93671 15.2219 6.96953 15.19L6.97383 15.1919C7.02242 15.1487 7.05663 15.0944 7.07266 15.035C7.07835 15.0284 7.08138 15.0203 7.08125 15.012C7.31543 14.4186 10.0482 7.89934 16.0725 8.41997C16.619 8.4635 17.1512 8.59926 17.6408 8.82001L16.9641 9.34255C16.4085 9.33185 15.8558 9.41565 15.3355 9.58946C14.9359 9.68708 10.7336 10.8068 10.957 14.187C11.0602 15.7527 12.2311 16.9107 13.8703 17.0677C13.9895 17.0793 14.1092 17.085 14.2291 17.0849C15.8061 17.0849 17.7934 16.1164 18.6764 13.3104C18.8952 12.6747 19.006 12.0134 19.0051 11.3485L19.7119 10.7111C21.1127 13.0463 20.8613 16.5854 19.1146 18.375H3.39453C3.32363 17.6802 3.70605 17.0792 4.53535 16.5873ZM10.7422 22.5859V22.2031H25.3623C25.3602 22.2299 25.358 22.2586 25.3559 22.2854C25.3537 22.3218 25.3516 22.3582 25.3516 22.3945C25.3516 22.4577 25.3559 22.5228 25.3623 22.5859H10.7422ZM27.5 23.543C27.2434 23.5438 26.9923 23.476 26.7794 23.3484C26.5664 23.2208 26.4014 23.0392 26.3055 22.8271C26.2434 22.6896 26.2113 22.5428 26.2109 22.3945C26.2112 22.3213 26.2192 22.2483 26.2346 22.1763C26.2421 22.1395 26.2521 22.103 26.2646 22.0672C26.2754 22.0328 26.2904 21.9964 26.3055 21.962C26.3055 21.96 26.3076 21.9581 26.3076 21.9562C26.405 21.7452 26.5708 21.5649 26.7837 21.4381C26.9967 21.3114 27.2472 21.2441 27.5032 21.2447C27.7593 21.2453 28.0094 21.3138 28.2216 21.4416C28.4337 21.5693 28.5984 21.7505 28.6945 21.962C28.7566 22.0995 28.7887 22.2463 28.7891 22.3945C28.7888 22.4678 28.7808 22.5408 28.7654 22.6127C28.7579 22.6496 28.7479 22.6861 28.7354 22.7218C28.7246 22.7563 28.7096 22.7927 28.6945 22.8271C28.6945 22.829 28.6924 22.8309 28.6924 22.8329C28.5955 23.0435 28.4303 23.2236 28.2179 23.3501C28.0055 23.4766 27.7555 23.5438 27.5 23.543ZM44.2578 22.5859H29.6377C29.6398 22.5591 29.642 22.5304 29.6441 22.5036C29.6463 22.4673 29.6484 22.4309 29.6484 22.3945C29.6484 22.3314 29.6441 22.2663 29.6377 22.2031H44.2578V22.5859Z" fill="#7DD1EC"/>
</g>
</g>
</svg>
