<svg width="38" height="37" viewBox="0 0 38 37" fill="none" xmlns="http://www.w3.org/2000/svg">
<g id="Group">
<path id="Vector" d="M18.4751 33.4964L18.4748 33.4968C16.4799 35.4392 13.8372 36.5 11.02 36.5C8.21674 36.5 5.57394 35.4394 3.57881 33.4968C1.58414 31.5546 0.5 28.9875 0.5 26.27C0.5 23.539 1.58429 20.9722 3.57856 19.0303C3.57864 19.0302 3.57872 19.0301 3.57881 19.03L10.2461 12.5507L25.1229 27.0361L18.4751 33.4964Z" fill="white" stroke="#7DD1EC"/>
<path id="Vector_2" d="M34.7702 3.145C32.6802 1.11 29.9116 0 26.9802 0C24.0352 0 21.2666 1.11 19.1766 3.145L10.2466 11.8532L25.8402 27.0364L34.7702 18.3282C36.8466 16.2932 38.0002 13.5975 38.0002 10.73C38.0002 7.87571 36.8466 5.18 34.7702 3.145ZM31.3637 5.68875C31.0991 5.94775 30.7489 6.07857 30.4002 6.07857C30.0541 6.07857 29.708 5.95039 29.4447 5.69536C28.0849 4.38186 25.8741 4.38186 24.5169 5.69536C23.9836 6.20939 23.1272 6.20543 22.5966 5.68875C22.0687 5.17075 22.0714 4.33429 22.6034 3.82025C25.0177 1.48661 28.9439 1.48793 31.3556 3.82025C31.8889 4.33296 31.8917 5.17075 31.3637 5.68875Z" fill="#7DD1EC"/>
<path id="Vector_3" d="M22.6033 3.82022C22.0713 4.33426 22.0686 5.17072 22.5965 5.68872C23.1271 6.2054 23.9835 6.20936 24.5168 5.69533C25.874 4.38315 28.0848 4.38183 29.4446 5.69533C29.7093 5.95036 30.0553 6.07854 30.4001 6.07854C30.7488 6.07854 31.099 5.94772 31.3636 5.68872C31.8916 5.17072 31.8888 4.33426 31.3555 3.8189C28.9438 1.48658 25.019 1.48658 22.6033 3.82022Z" fill="white"/>
</g>
</svg>
