<svg width="11" height="12" viewBox="0 0 11 12" fill="none" xmlns="http://www.w3.org/2000/svg">
<path id="Vector" d="M0.787549 0.299988C0.518312 0.299988 0.300049 0.518251 0.300049 0.787488V4.03741C0.300049 5.48675 1.35417 6.68988 2.73755 6.92199V7.61242C2.73755 9.4971 4.26537 11.0249 6.15005 11.0249C8.03472 11.0249 9.56255 9.4971 9.56255 7.61242V6.89515C10.3128 6.68292 10.8625 5.99314 10.8625 5.17491C10.8625 4.1877 10.0623 3.38741 9.07505 3.38741C8.08783 3.38741 7.28755 4.1877 7.28755 5.17491C7.28755 5.99314 7.83725 6.68292 8.58755 6.89515V7.61242C8.58755 8.95864 7.49626 10.0499 6.15005 10.0499C4.80385 10.0499 3.71255 8.95864 3.71255 7.61242V6.92199C5.09593 6.68988 6.15005 5.48675 6.15005 4.03741V0.787488C6.15005 0.518251 5.93178 0.299988 5.66255 0.299988H4.68755C4.41831 0.299988 4.20005 0.518251 4.20005 0.787488C4.20005 1.05672 4.41831 1.27499 4.68755 1.27499H5.17505V4.03741C5.17505 5.11437 4.302 5.98742 3.22505 5.98742C2.1481 5.98742 1.27505 5.11437 1.27505 4.03741V1.27499H1.76255C2.03179 1.27499 2.25005 1.05672 2.25005 0.787488C2.25005 0.518251 2.03179 0.299988 1.76255 0.299988H0.787549ZM9.07505 4.36241C9.52381 4.36241 9.88755 4.72618 9.88755 5.17491C9.88755 5.62362 9.52381 5.98742 9.07505 5.98742C8.62629 5.98742 8.26255 5.62362 8.26255 5.17491C8.26255 4.72618 8.62629 4.36241 9.07505 4.36241Z" fill="#00ABD1"/>
</svg>
