<svg width="24" height="26" viewBox="0 0 24 26" fill="none" xmlns="http://www.w3.org/2000/svg">
<path id="Vector" d="M12 13C13.8186 13 15.5628 12.3152 16.8487 11.0962C18.1347 9.87721 18.8571 8.22391 18.8571 6.5C18.8571 4.77609 18.1347 3.12279 16.8487 1.90381C15.5628 0.68482 13.8186 0 12 0C10.1814 0 8.43723 0.68482 7.15127 1.90381C5.8653 3.12279 5.14286 4.77609 5.14286 6.5C5.14286 8.22391 5.8653 9.87721 7.15127 11.0962C8.43723 12.3152 10.1814 13 12 13ZM9.55179 15.4375C4.275 15.4375 0 19.4898 0 24.4918C0 25.3246 0.7125 26 1.59107 26H22.4089C23.2875 26 24 25.3246 24 24.4918C24 19.4898 19.725 15.4375 14.4482 15.4375H9.55179Z" fill="#EA7000"/>
</svg>
