<svg width="13" height="17" viewBox="0 0 13 17" fill="none" xmlns="http://www.w3.org/2000/svg">
<path id="Vector" d="M11.6875 1.81e-07H1.0625C0.922948 -8.12959e-05 0.784748 0.0273455 0.655803 0.0807122C0.526857 0.134079 0.409696 0.212339 0.311018 0.311017C0.212339 0.409696 0.134079 0.526857 0.0807122 0.655803C0.0273455 0.784748 -8.12959e-05 0.922948 1.81e-07 1.0625V15.9375C-2.08357e-05 16.1377 0.0564991 16.3338 0.163052 16.5033C0.269604 16.6728 0.421856 16.8087 0.602275 16.8954C0.782694 16.9822 0.983944 17.0162 1.18285 16.9936C1.38175 16.9709 1.57023 16.8926 1.72656 16.7676L6.375 13.0478L11.0234 16.7676C11.1798 16.8926 11.3682 16.9709 11.5672 16.9936C11.7661 17.0162 11.9673 16.9822 12.1477 16.8954C12.3281 16.8087 12.4804 16.6728 12.5869 16.5033C12.6935 16.3338 12.75 16.1377 12.75 15.9375V1.0625C12.7501 0.922948 12.7227 0.784748 12.6693 0.655803C12.6159 0.526857 12.5377 0.409696 12.439 0.311017C12.3403 0.212339 12.2231 0.134079 12.0942 0.0807122C11.9653 0.0273455 11.8271 -8.12959e-05 11.6875 1.81e-07ZM10.625 13.7264L7.03906 10.8574C6.85043 10.7069 6.61629 10.625 6.375 10.625C6.13371 10.625 5.89957 10.7069 5.71094 10.8574L2.125 13.7264V2.125H10.625V13.7264Z" fill="#00677D"/>
</svg>
