<svg width="25" height="32" viewBox="0 0 25 32" fill="none" xmlns="http://www.w3.org/2000/svg">
<path id="Vector" d="M19.59 12.9655C19.59 15.8266 18.8883 18.4696 17.7063 20.6139L23.6681 28.5116C24.2568 29.2908 24.2568 30.5562 23.6681 31.3353C23.0795 32.1145 22.1235 32.1145 21.5349 31.3353L15.5731 23.4376C13.9532 25.0084 11.9565 25.931 9.795 25.931C4.3842 25.931 0 20.1277 0 12.9655C0 5.8033 4.3842 0 9.795 0C15.2058 0 19.59 5.8033 19.59 12.9655ZM9.795 21.9416C10.6855 21.9416 11.5673 21.7094 12.39 21.2583C13.2128 20.8072 13.9603 20.1461 14.59 19.3125C15.2197 18.479 15.7192 17.4895 16.06 16.4005C16.4008 15.3115 16.5762 14.1442 16.5762 12.9655C16.5762 11.7867 16.4008 10.6195 16.06 9.53048C15.7192 8.44145 15.2197 7.45193 14.59 6.61842C13.9603 5.78491 13.2128 5.12374 12.39 4.67264C11.5673 4.22155 10.6855 3.98938 9.795 3.98938C8.90448 3.98938 8.02269 4.22155 7.19996 4.67264C6.37724 5.12374 5.62969 5.78491 5 6.61842C4.37031 7.45193 3.87081 8.44145 3.53003 9.53048C3.18924 10.6195 3.01385 11.7867 3.01385 12.9655C3.01385 14.1442 3.18924 15.3115 3.53003 16.4005C3.87081 17.4895 4.37031 18.479 5 19.3125C5.62969 20.1461 6.37724 20.8072 7.19996 21.2583C8.02269 21.7094 8.90448 21.9416 9.795 21.9416Z" fill="#00ABD1"/>
</svg>
